<svg xmlns="http://www.w3.org/2000/svg" width="32" height="32" viewBox="0 0 128 128">
  <defs>
    <linearGradient id="bg" x1="0" y1="0" x2="1" y2="1">
      <stop offset="0%" stop-color="#5B6CFF"/>
      <stop offset="100%" stop-color="#8B3DFF"/>
    </linearGradient>
    <linearGradient id="boltGrad" x1="0" y1="0" x2="0" y2="1">
      <stop offset="0%" stop-color="#FFE27A"/>
      <stop offset="100%" stop-color="#FFB020"/>
    </linearGradient>
  </defs>
  <rect x="4" y="4" width="120" height="120" rx="26" ry="26" fill="url(#bg)"/>
  <g fill="none" stroke="#FFFFFF" stroke-width="11" stroke-linecap="round" stroke-linejoin="round">
    <path d="M40 26 C26 26, 22 34, 22 46 C22 58, 20 64, 12 64 C20 64, 22 70, 22 82 C22 94, 26 102, 40 102"/>
    <path d="M88 26 C102 26, 106 34, 106 46 C106 58, 108 64, 116 64 C108 64, 106 70, 106 82 C106 94, 102 102, 88 102"/>
  </g>
  <path d="M74 30 L44 74 L60 74 L54 98 L84 54 L68 54 Z"
        fill="url(#boltGrad)" stroke="#FFFFFF" stroke-width="4"
        stroke-linejoin="round" stroke-linecap="round"/>
</svg>
